<?xml version="1.0" standalone="no"?><!DOCTYPE svg PUBLIC "-//W3C//DTD SVG 1.1//EN" "http://www.w3.org/Graphics/SVG/1.1/DTD/svg11.dtd"><svg t="1741510508434" class="icon" viewBox="0 0 1024 1024" version="1.1" xmlns="http://www.w3.org/2000/svg" p-id="16869" width="32" height="32" xmlns:xlink="http://www.w3.org/1999/xlink"><path d="M469.5 244.5h90.6v99.6H462.9V244.5z" fill="#bfbfbf" p-id="16870"></path><path d="M959.1 707.3v252.2H861.9V707.3c0-12.1-4.4-21.9-11-29.4-7.4-7.6-16.9-12.1-27.2-12.1H200.9c-11 0-20.6 4.5-28 12.1-7.4 7.6-11.8 18.1-11.8 29.4v111c0 11.3 4.4 21.9 11.8 28.7 7.4 7.6 16.9 12.8 28 12.8h643.4v99.6H200.9c-38.3 0-72.1-15.9-97.2-41.5-25-25.7-40.5-60.4-40.5-99.7v-111c0-38.5 15.5-73.2 40.5-98.9 25-24.9 59.6-40.8 97.2-40.8h622.8c36.8 0 71.4 15.9 95.7 40.8 24.9 25.8 39.7 60.5 39.7 99zM736.8 202.2v323.1h-97.1V202.2c0-11.3-4.4-21.9-11.8-29.4-6.6-6.8-16.2-11.3-27.2-11.3H423.2c-10.3 0-20.6 4.5-28 12.1-7.4 7.6-11.8 17.4-11.8 28.7v182c0 11.3 4.4 21.9 11.8 28.7 7.4 7.6 17.7 12.8 28 12.8h198v99.6h-198c-37.5 0-72.1-15.9-96.4-41.5-25-25.7-40.5-60.4-40.5-99.7v-182c0-37.8 15.5-73.2 40.5-98.2 25-25.7 58.9-40.8 96.4-40.8h177.4c37.5 0 71.4 15.1 96.4 40.8 24.3 24.9 39.8 60.4 39.8 98.2z" fill="#bfbfbf" p-id="16871"></path></svg>